<?xml version="1.0" standalone="no"?>
<!DOCTYPE svg PUBLIC "-//W3C//DTD SVG 20010904//EN"
 "http://www.w3.org/TR/2001/REC-SVG-20010904/DTD/svg10.dtd">
<svg version="1.0" xmlns="http://www.w3.org/2000/svg"
 width="421.000000pt" height="421.000000pt" viewBox="0 0 421.000000 421.000000"
 preserveAspectRatio="xMidYMid meet">
<metadata>
Created by potrace 1.14, written by Peter Selinger 2001-2017
</metadata>
<g transform="translate(0.000000,421.000000) scale(0.100000,-0.100000)"
fill="#000000" stroke="none">
<path d="M1765 3612 c-110 -12 -273 -80 -383 -159 -93 -66 -239 -214 -300
-305 -29 -43 -52 -80 -52 -84 0 -3 -9 -18 -20 -34 -11 -15 -17 -30 -13 -34 3
-3 1 -6 -6 -6 -7 0 -9 -4 -6 -10 3 -5 1 -10 -6 -10 -7 0 -9 -3 -6 -7 4 -3 3
-11 -2 -17 -9 -12 -58 -148 -66 -184 -3 -12 -7 -31 -10 -42 -3 -11 -7 -29 -9
-40 -3 -11 -17 -60 -32 -108 -15 -48 -29 -90 -30 -94 -1 -5 -3 -10 -4 -13 -1
-3 -4 -9 -5 -15 -1 -5 -4 -12 -5 -15 -1 -3 -3 -8 -4 -12 -1 -5 -7 -18 -14 -30
-7 -13 -10 -23 -7 -23 3 0 -2 -11 -11 -24 -8 -14 -15 -26 -14 -28 0 -2 -7 -21
-16 -43 -10 -22 -17 -43 -16 -47 1 -5 -3 -8 -9 -8 -5 0 -7 -4 -4 -10 3 -6 1
-10 -5 -10 -6 0 -8 -4 -5 -10 3 -5 1 -10 -4 -10 -6 0 -10 -3 -9 -7 0 -5 -7
-26 -17 -48 -10 -22 -19 -42 -20 -45 0 -3 -6 -15 -13 -27 -7 -13 -10 -23 -6
-23 3 0 1 -7 -6 -15 -7 -8 -10 -15 -6 -15 3 0 1 -12 -5 -27 -6 -16 -13 -37
-15 -48 -2 -11 -7 -33 -10 -50 -10 -45 -10 -378 -1 -475 4 -48 20 -121 36
-168 27 -77 105 -221 141 -260 14 -15 85 -117 103 -148 4 -7 -4 -22 -18 -36
-25 -25 -100 -158 -89 -158 4 0 2 -6 -4 -12 -8 -11 -28 -71 -38 -113 -1 -5 -7
-30 -14 -55 -12 -45 -17 -65 -26 -109 -3 -14 -7 -28 -10 -32 -8 -13 28 -17
161 -18 72 -1 155 -4 185 -7 94 -12 1170 -10 1170 1 0 7 3 7 8 0 4 -6 149 -10
397 -10 248 0 393 4 397 10 5 7 8 7 8 0 0 -11 135 -12 185 -1 17 3 103 7 193
8 187 1 172 -11 142 118 -31 131 -69 239 -103 300 -33 59 -36 62 -100 128 -37
37 -41 47 -42 91 l0 49 36 -37 c47 -48 66 -61 73 -54 3 4 6 1 6 -5 0 -7 11
-12 25 -12 14 0 25 2 25 5 0 3 -14 30 -31 60 -46 83 -46 124 4 226 23 46 46
87 52 91 6 5 6 8 0 8 -6 0 -6 3 1 8 8 6 45 74 49 92 1 3 5 12 8 20 47 109 61
230 44 385 -15 148 -88 357 -200 581 -30 60 -87 204 -127 319 -119 350 -225
543 -381 695 -59 57 -169 140 -186 140 -6 0 -16 7 -23 15 -7 9 -15 13 -18 10
-3 -3 -10 -1 -16 4 -20 17 -116 51 -159 56 -105 15 -169 5 -272 -41 -56 -24
-115 -26 -115 -3 0 5 -7 9 -15 9 -8 0 -15 4 -15 9 0 9 -69 36 -121 47 -33 7
-118 10 -154 6z"/>
</g>
</svg>
